<svg width="50" height="59" viewBox="0 0 50 59" fill="none" xmlns="http://www.w3.org/2000/svg">
<path d="M48.4337 20.1294C44.3374 22.5588 41.8072 26.7235 41.8072 31.351C41.8072 36.5569 45.0602 41.3 50 43.2667C49.0361 46.2745 47.5904 49.051 45.7831 51.5961C43.1325 55.1824 40.3614 58.8843 36.2651 58.8843C32.1687 58.8843 30.9639 56.5706 26.1446 56.5706C21.4458 56.5706 19.759 59 15.9036 59C12.0482 59 9.39759 55.6451 6.38554 51.4804C2.40964 45.6961 0.120482 38.9863 0 31.9294C0 20.4765 7.71084 14.3451 15.4217 14.3451C19.5181 14.3451 22.8916 16.8902 25.4217 16.8902C27.8313 16.8902 31.6867 14.2294 36.2651 14.2294C41.0843 14.1137 45.6627 16.3118 48.4337 20.1294ZM34.0964 9.37059C36.1446 7.05686 37.2289 4.16471 37.3494 1.15686C37.3494 0.809804 37.3494 0.347059 37.2289 0C33.7349 0.347059 30.4819 1.96667 28.1928 4.51177C26.1446 6.7098 24.9398 9.48627 24.8193 12.4941C24.8193 12.8412 24.8193 13.1882 24.9398 13.5353C25.1807 13.5353 25.5422 13.651 25.7831 13.651C29.0361 13.4196 32.0482 11.8 34.0964 9.37059Z" fill="black"/>
</svg>
