<svg width="71" height="72" viewBox="0 0 71 72" fill="none" xmlns="http://www.w3.org/2000/svg">
<path d="M70.0398 36.5465C70.0398 34.0126 69.8124 31.5762 69.3901 29.2372H35.7347V43.0599H54.9664C54.138 47.5267 51.6203 51.3114 47.8357 53.8453V62.8113H59.3845C66.1415 56.5903 70.0398 47.4293 70.0398 36.5465Z" fill="black"/>
<path d="M35.7346 71.4688C45.3829 71.4688 53.4719 68.2689 59.3844 62.8113L47.8356 53.8452C44.6358 55.9893 40.5426 57.2562 35.7346 57.2562C26.4274 57.2562 18.5496 50.9702 15.7396 42.5239H3.80103V51.7824C9.68097 63.461 21.7657 71.4688 35.7346 71.4688Z" fill="black"/>
<path d="M15.7395 42.5239C15.0248 40.3799 14.6188 38.0896 14.6188 35.7344C14.6188 33.3792 15.0248 31.0889 15.7395 28.9448V19.6864H3.80097C1.29956 24.666 -0.00208251 30.1618 0.000124873 35.7344C0.000124873 41.5006 1.38077 46.9583 3.80097 51.7824L15.7395 42.5239Z" fill="black"/>
<path d="M35.7346 14.2125C40.9811 14.2125 45.6916 16.0155 49.395 19.5564L59.6442 9.30714C53.4557 3.5409 45.3667 -6.10352e-05 35.7346 -6.10352e-05C21.7657 -6.10352e-05 9.68097 8.00771 3.80103 19.6864L15.7396 28.9449C18.5496 20.4985 26.4274 14.2125 35.7346 14.2125Z" fill="black"/>
</svg>